<svg xmlns="http://www.w3.org/2000/svg" viewBox="0 0 56.61 74"><defs><style>.cls-1{fill:none;stroke:#0ed1d6;stroke-miterlimit:10;stroke-width:4px;}</style></defs><title>Fichier 16</title><g id="Calque_2" data-name="Calque 2"><g id="Calque_2-2" data-name="Calque 2"><path class="cls-1" d="M39.3,27.29V8.41A6.41,6.41,0,0,0,32.9,2H24.78a6.4,6.4,0,0,0-6.4,6.41V27.29A6.41,6.41,0,0,1,12,33.7H8.42a6.4,6.4,0,0,0-5,10.4L23.72,69.59a6.4,6.4,0,0,0,10.1-.11L53.28,44A6.4,6.4,0,0,0,48.19,33.7H45.71A6.41,6.41,0,0,1,39.3,27.29Z"/></g></g></svg>