<svg xmlns="http://www.w3.org/2000/svg" viewBox="0 0 57.74 70"><defs><style>.cls-1{fill:#0ed1d6;}</style></defs><title>Fichier 18</title><g id="Calque_2" data-name="Calque 2"><g id="Calque_2-2" data-name="Calque 2"><path class="cls-1" d="M46.07,70H11.67A11.68,11.68,0,0,1,0,58.33V11.67A11.68,11.68,0,0,1,11.67,0h34.4A11.68,11.68,0,0,1,57.74,11.67V58.33A11.68,11.68,0,0,1,46.07,70ZM11.67,4.75a6.92,6.92,0,0,0-6.92,6.92V58.33a6.92,6.92,0,0,0,6.92,6.92h34.4A6.92,6.92,0,0,0,53,58.33V11.67a6.92,6.92,0,0,0-6.92-6.92Z"/><rect class="cls-1" x="15.32" y="17.01" width="27.09" height="4.75"/><rect class="cls-1" x="15.32" y="31.64" width="27.09" height="4.75"/><rect class="cls-1" x="15.32" y="46.27" width="27.09" height="4.75"/></g></g></svg>