<svg xmlns="http://www.w3.org/2000/svg" viewBox="0 0 67.03 70"><defs><style>.cls-1{fill:#0ed1d6;}</style></defs><title>Fichier 14</title><g id="Calque_2" data-name="Calque 2"><g id="Calque_2-2" data-name="Calque 2"><path class="cls-1" d="M60.71,70H6.32A6.33,6.33,0,0,1,0,63.68V30.22A6.33,6.33,0,0,1,6.32,23.9h8.23A2,2,0,0,0,16.5,22V6.32A6.33,6.33,0,0,1,22.82,0H44.21a6.33,6.33,0,0,1,6.32,6.32V22a2,2,0,0,0,1.95,1.95h8.23A6.33,6.33,0,0,1,67,30.22V63.68A6.33,6.33,0,0,1,60.71,70ZM6.32,28.27a2,2,0,0,0-1.95,1.95V63.68a2,2,0,0,0,2,1.95H60.71a2,2,0,0,0,1.95-1.95V30.22a2,2,0,0,0-1.95-1.95H52.48A6.33,6.33,0,0,1,46.16,22V6.32a2,2,0,0,0-1.95-1.95H22.82a2,2,0,0,0-1.95,2V22a6.33,6.33,0,0,1-6.32,6.32Z"/></g></g></svg>