<svg xmlns="http://www.w3.org/2000/svg" viewBox="0 0 35.69 30.4"><defs><style>.cls-1{fill:#98a0a9;}.cls-2{fill:none;stroke:#98a0a9;stroke-miterlimit:10;}</style></defs><title>Fichier 1</title><g id="Calque_2" data-name="Calque 2"><g id="Calque_2-2" data-name="Calque 2"><path class="cls-1" d="M33.41,5.8H10.69A2.28,2.28,0,0,1,8.41,3.52h0a2.28,2.28,0,0,1,2.28-2.28H33.41a2.28,2.28,0,0,1,2.28,2.28h0A2.28,2.28,0,0,1,33.41,5.8Z"/><path class="cls-1" d="M33.41,17.69H10.69a2.28,2.28,0,0,1-2.28-2.28h0a2.28,2.28,0,0,1,2.28-2.28H33.41a2.28,2.28,0,0,1,2.28,2.28h0A2.28,2.28,0,0,1,33.41,17.69Z"/><path class="cls-1" d="M33.41,29.53H10.69a2.28,2.28,0,0,1-2.28-2.28h0A2.28,2.28,0,0,1,10.69,25H33.41a2.28,2.28,0,0,1,2.28,2.27h0A2.28,2.28,0,0,1,33.41,29.53Z"/><path class="cls-2" d="M5.8,3.15A2.65,2.65,0,1,1,3.15.5,2.65,2.65,0,0,1,5.8,3.15Z"/><path class="cls-2" d="M5.8,15.78a2.65,2.65,0,1,1-2.65-2.65A2.65,2.65,0,0,1,5.8,15.78Z"/><path class="cls-2" d="M5.8,27.25a2.65,2.65,0,1,1-2.65-2.64A2.65,2.65,0,0,1,5.8,27.25Z"/></g></g></svg>