<svg xmlns="http://www.w3.org/2000/svg" viewBox="0 0 76.98 74"><defs><style>.cls-1{fill:none;stroke:#0ed1d6;stroke-miterlimit:10;stroke-width:4px;}</style></defs><title>Fichier 15</title><g id="Calque_2" data-name="Calque 2"><g id="Calque_2-2" data-name="Calque 2"><path class="cls-1" d="M43.88,5.35,50.5,18.76A6,6,0,0,0,55,22.05l14.8,2.15a6,6,0,0,1,3.33,10.26L62.45,44.9a6,6,0,0,0-1.73,5.32L63.25,65a6,6,0,0,1-8.73,6.34l-13.23-7a6,6,0,0,0-5.6,0l-13.23,7A6,6,0,0,1,13.73,65l2.53-14.74a6,6,0,0,0-1.73-5.32L3.82,34.46A6,6,0,0,1,7.16,24.2L22,22.05a6,6,0,0,0,4.53-3.29L33.1,5.35A6,6,0,0,1,43.88,5.35Z"/></g></g></svg>