<svg xmlns="http://www.w3.org/2000/svg" viewBox="0 0 74 74"><defs><style>.cls-1{fill:none;stroke:#0ed1d6;stroke-miterlimit:10;stroke-width:4px;}</style></defs><title>Fichier 17</title><g id="Calque_2" data-name="Calque 2"><g id="Calque_2-2" data-name="Calque 2"><path class="cls-1" d="M66.57,29.13H61.8a27.08,27.08,0,0,0-1.48-3.55L63.86,22a5.45,5.45,0,0,0,0-7.68L60,10.52a5.44,5.44,0,0,0-7.67,0L48.84,14a25.93,25.93,0,0,0-3.43-1.45V7.43A5.44,5.44,0,0,0,40,2H34.56a5.44,5.44,0,0,0-5.43,5.43v5a24.87,24.87,0,0,0-3.43,1.39L22,10.14a5.45,5.45,0,0,0-7.68,0L10.52,14a5.44,5.44,0,0,0,0,7.67L14,25.1a27,27,0,0,0-1.51,3.49h-5A5.44,5.44,0,0,0,2,34v5.42a5.44,5.44,0,0,0,5.43,5.43h4.66a25.06,25.06,0,0,0,1.46,3.69L10.14,52a5.45,5.45,0,0,0,0,7.68L14,63.48a5.44,5.44,0,0,0,7.67,0l3.17-3.17a26.21,26.21,0,0,0,3.77,1.61v4.65A5.44,5.44,0,0,0,34,72h5.42a5.44,5.44,0,0,0,5.43-5.43V62.15a26.52,26.52,0,0,0,3.81-1.57L52,63.86a5.45,5.45,0,0,0,7.68,0L63.48,60a5.44,5.44,0,0,0,0-7.67l-3.24-3.23a26.92,26.92,0,0,0,1.56-3.71h4.77A5.44,5.44,0,0,0,72,40V34.56A5.44,5.44,0,0,0,66.57,29.13ZM47.19,37.27A10.16,10.16,0,1,1,37,27.11,10.16,10.16,0,0,1,47.19,37.27Z"/></g></g></svg>