<svg xmlns="http://www.w3.org/2000/svg" viewBox="0 0 47.26 47.26"><defs><style>.cls-1{fill:#98a0a9;}</style></defs><title>Fichier 19</title><g id="Calque_2" data-name="Calque 2"><g id="Calque_1-2" data-name="Calque 1"><path class="cls-1" d="M46.47,0H.79A.79.79,0,0,0,0,.79V29.15a.78.78,0,0,0,.79.78H8.66v1.43a4.71,4.71,0,0,0-.49,7.84,7.09,7.09,0,0,0-4.23,6.49v.78a.79.79,0,0,0,.79.79H42.54a.78.78,0,0,0,.78-.79v-.78a7.09,7.09,0,0,0-4.23-6.49,4.71,4.71,0,0,0-.49-7.84V29.93h7.87a.78.78,0,0,0,.79-.78V.79A.79.79,0,0,0,46.47,0ZM7.88,35.45A3.15,3.15,0,1,1,11,38.6,3.15,3.15,0,0,1,7.88,35.45Zm25.5,3.75a7.12,7.12,0,0,0-3.45,3.25,7.15,7.15,0,0,0-3.44-3.25,4.71,4.71,0,0,0,1.87-3.75,4.65,4.65,0,0,0-1.22-3.15h5.58a4.7,4.7,0,0,0,.66,6.9Zm-6.6-3.75a3.15,3.15,0,1,1-3.15-3.15A3.16,3.16,0,0,1,26.78,35.45Zm-6,3.75a7.15,7.15,0,0,0-3.44,3.25,7.12,7.12,0,0,0-3.45-3.25,4.7,4.7,0,0,0,.66-6.9h5.58a4.69,4.69,0,0,0,.65,6.9Zm-9.74,1a5.52,5.52,0,0,1,5.51,5.52h-11A5.53,5.53,0,0,1,11,40.17Zm12.6,0a5.53,5.53,0,0,1,5.52,5.52h-11A5.52,5.52,0,0,1,23.63,40.17Zm18.12,5.52h-11a5.52,5.52,0,1,1,11,0ZM36.23,38.6a3.15,3.15,0,1,1,3.16-3.15A3.16,3.16,0,0,1,36.23,38.6Zm-26-7.88V25.21a.79.79,0,0,0-.79-.79H7.09V22.84H40.17v1.58H35.45V26H37v4.73Zm7.42-14.89a.77.77,0,0,0-.83.11l-2.15,1.78a2.35,2.35,0,0,1-3.42-.43L7.4,12l1.88-1.41,3.47,4.85a.8.8,0,0,0,.53.33.76.76,0,0,0,.6-.17l2.65-2.11A3.93,3.93,0,0,1,19,12.6h9.28a3.91,3.91,0,0,1,2.46.87l2.65,2.11a.77.77,0,0,0,1.13-.16L38,10.57,39.87,12,36,17.29a2.32,2.32,0,0,1-1.62,1,2.35,2.35,0,0,1-1.8-.53l-2.14-1.78a.78.78,0,0,0-1.29.6v4.73H24.42V14.18H22.84v7.09H18.12V16.54A.79.79,0,0,0,17.66,15.83Zm2.82-7.95A3.15,3.15,0,1,1,23.63,11,3.15,3.15,0,0,1,20.48,7.88ZM45.69,28.36H38.6V26H41a.78.78,0,0,0,.79-.78V22.06a.79.79,0,0,0-.79-.79H30.72V18.22l.85.71a3.9,3.9,0,0,0,3,.88,4,4,0,0,0,2.7-1.59l4.32-5.94a.78.78,0,0,0-.17-1.09L38.28,8.82a.77.77,0,0,0-.59-.14.74.74,0,0,0-.52.32l-3.46,4.83-2-1.59A5.52,5.52,0,0,0,28.28,11H27.14a4.67,4.67,0,0,0,1.22-3.15A4.73,4.73,0,1,0,20.12,11H19a5.55,5.55,0,0,0-3.45,1.21l-2,1.59L10.09,9a.82.82,0,0,0-.52-.32A.82.82,0,0,0,9,8.82L5.83,11.19a.78.78,0,0,0-.17,1.09L10,18.22a3.94,3.94,0,0,0,5.7.71l.85-.71v3.05H6.3a.79.79,0,0,0-.79.79v3.15A.79.79,0,0,0,6.3,26H8.66v2.37H1.58V1.58H45.69Z"/></g></g></svg>