<svg xmlns="http://www.w3.org/2000/svg" viewBox="0 0 44.54 44.54"><defs><style>.cls-1{fill:#98a0a9;}</style></defs><title>Fichier 20</title><g id="Calque_2" data-name="Calque 2"><g id="Calque_1-2" data-name="Calque 1"><path class="cls-1" d="M44.54,37.19V31.77l-2.08-.53-.05-.11,1.1-1.84-3.84-3.84-1.84,1.09-.11,0-.53-2.08H31.77l-.53,2.08-.11.05-1.84-1.1-3.84,3.84,1.09,1.84a.49.49,0,0,1,0,.11l-2.08.53v5.42l2.08.53.05.11-1.1,1.84,3.84,3.84,1.84-1.09.11,0,.53,2.08h5.42l.53-2.08.11-.05,1.84,1.1,3.84-3.84-1.09-1.84s0-.07,0-.11ZM41.7,39.45,39.45,41.7l-1.54-.91-.34.17c-.23.1-.45.2-.69.28l-.36.13-.44,1.73h-3.2l-.44-1.73-.36-.13A5.72,5.72,0,0,1,31.4,41l-.35-.17-1.54.91-2.25-2.25.91-1.54L28,37.57c-.1-.23-.2-.45-.28-.69l-.13-.36-1.73-.44v-3.2l1.73-.44.13-.36c.08-.23.18-.46.28-.68l.17-.35-.91-1.54,2.25-2.25,1.54.91L31.4,28c.22-.1.45-.2.68-.28l.36-.13.44-1.73h3.2l.44,1.73.36.13c.23.08.46.18.68.28l.35.17,1.54-.91,2.25,2.25-.91,1.54.17.35c.1.22.2.45.28.68l.13.36,1.73.44v3.2l-1.73.44-.13.36a5.72,5.72,0,0,1-.28.68l-.17.35Z"/><path class="cls-1" d="M34.48,28.73a5.75,5.75,0,1,0,5.75,5.75,5.76,5.76,0,0,0-5.75-5.75Zm0,10.06a4.31,4.31,0,1,1,4.31-4.31,4.31,4.31,0,0,1-4.31,4.31Z"/><path class="cls-1" d="M34.48,31.61a2.87,2.87,0,1,0,2.87,2.87,2.88,2.88,0,0,0-2.87-2.87Zm0,4.31a1.44,1.44,0,1,1,1.44-1.44,1.45,1.45,0,0,1-1.44,1.44Z"/><path class="cls-1" d="M18.19,12.16A4.26,4.26,0,0,0,19.4,14v.61L16,15.87a3.61,3.61,0,0,0-2.33,3.36V23H30.89V19.23a3.61,3.61,0,0,0-2.33-3.36l-3.42-1.28V14a4.24,4.24,0,0,0,1.2-1.82,2.86,2.86,0,0,0,2.39-2.82V6.47a6.47,6.47,0,1,0-12.93,0V9.34a2.87,2.87,0,0,0,2.39,2.82Zm5.52,2.73-1.44,2.39-1.44-2.39v-.06a4.28,4.28,0,0,0,1.44.26,4.37,4.37,0,0,0,1.44-.26ZM19.81,16l1.44,2.41-1.44.72-.92-2.79Zm9.64,3.26v2.32H15.09V19.23a2.18,2.18,0,0,1,1.39-2l1.06-.39L19,21.13l3.29-1.65,3.29,1.65L27,16.82l1.05.39a2.17,2.17,0,0,1,1.4,2Zm-3.8-2.92-.93,2.79-1.44-.72L24.73,16Zm-3.38-2.66a2.87,2.87,0,0,1-2.87-2.87V7.85a5.56,5.56,0,0,0,2.87-1.14,5.56,5.56,0,0,0,2.87,1.14v2.93a2.88,2.88,0,0,1-2.87,2.87Zm4.31-3.07V8.1a1.43,1.43,0,0,1,0,2.48ZM22.27,1.44a5,5,0,0,1,5,5v.39a2.93,2.93,0,0,0-1.44-.39h-.12a4.16,4.16,0,0,1-3-1.23l-.51-.51-.51.51a4.16,4.16,0,0,1-3,1.23h-.12a2.9,2.9,0,0,0-1.44.39V6.47a5,5,0,0,1,5-5ZM18,8.1v2.47a1.4,1.4,0,0,1-.72-1.23A1.43,1.43,0,0,1,18,8.1Z"/><path class="cls-1" d="M0,44.54H14.37V25.86H0ZM1.44,27.3H12.93V43.1H1.44Z"/><rect class="cls-1" x="2.87" y="28.73" width="8.62" height="1.44"/><rect class="cls-1" x="2.87" y="31.61" width="1.44" height="1.44"/><rect class="cls-1" x="5.75" y="31.61" width="5.75" height="1.44"/><rect class="cls-1" x="2.87" y="34.48" width="8.62" height="1.44"/><rect class="cls-1" x="2.87" y="37.35" width="8.62" height="1.44"/><rect class="cls-1" x="10.06" y="40.23" width="1.44" height="1.44"/><rect class="cls-1" x="2.87" y="40.23" width="5.75" height="1.44"/><path class="cls-1" d="M19.18,32.11l-1-1-3.38,3.38,3.38,3.38,1-1L17.54,35.2H23V33.76H17.54Z"/><path class="cls-1" d="M7.9,11.49a.71.71,0,0,1,.72-.71h3.29l-1.64,1.64,1,1,3.38-3.38L11.28,6.68l-1,1,1.64,1.65H8.62a2.15,2.15,0,0,0-2.15,2.15V24.42H7.9Z"/><path class="cls-1" d="M34.48,11.49v9l-1.65-1.64-1,1,3.38,3.38,3.38-3.38-1-1-1.64,1.64v-9a2.16,2.16,0,0,0-2.16-2.15H30.17v1.44h3.59a.71.71,0,0,1,.72.71Z"/></g></g></svg>