<svg xmlns="http://www.w3.org/2000/svg" viewBox="0 0 25.6 27.71"><defs><style>.cls-1{fill:#98a0a9;}.cls-2{fill:#0ed1d6;}.cls-3{font-size:6.14px;fill:#fff;font-family:RobotoSlab-Bold, Roboto Slab;font-weight:700;}</style></defs><title>Fichier 24</title><g id="Calque_2" data-name="Calque 2"><g id="Calque_1-2" data-name="Calque 1"><path class="cls-1" d="M13.47,21.87l-11.71-10,.08-.05A7,7,0,0,1,0,7.1,7.11,7.11,0,0,1,7.1,0a7,7,0,0,1,5.62,2.79A7,7,0,0,1,18.33,0a7.12,7.12,0,0,1,7.11,7.1H23.9A5.55,5.55,0,0,0,13.4,4.58l-.68,1.33L12,4.58a5.55,5.55,0,1,0-8.5,6.76l.83.7,0,0,9.07,7.74,4.37-4.2,1.06,1.11Z"/><path class="cls-2" d="M25.6,22.4a5.31,5.31,0,1,1-5.31-5.31A5.31,5.31,0,0,1,25.6,22.4Z"/><text class="cls-3" transform="translate(18.59 24.39)">2</text></g></g></svg>