<svg xmlns="http://www.w3.org/2000/svg" viewBox="0 0 30.93 30.93"><defs><style>.cls-1{fill:#98a0a9;}</style></defs><title>Fichier 23</title><g id="Calque_2" data-name="Calque 2"><g id="Calque_1-2" data-name="Calque 1"><path class="cls-1" d="M30.93,15.46A15.47,15.47,0,1,0,5,26.85l0,0,.5.42.11.08c.26.22.54.43.82.63l.27.2c.31.2.61.4.93.58l.21.12a10.48,10.48,0,0,0,1.05.55l.08,0a15.4,15.4,0,0,0,3.74,1.19h.11c.4.07.81.13,1.23.17h.15c.42,0,.84.06,1.26.06s.84,0,1.25-.06h.16c.41,0,.82-.09,1.22-.16l.11,0a14.76,14.76,0,0,0,3.68-1.16l.13-.06c.35-.16.69-.34,1-.52l.25-.14c.3-.18.6-.37.89-.57l.31-.22c.24-.17.49-.36.72-.55l.16-.12.52-.43h0a15.43,15.43,0,0,0,5.07-11.44Zm-29.8,0A14.34,14.34,0,1,1,25,26.18a3.68,3.68,0,0,0-.5-.3L19.71,23.5A1.24,1.24,0,0,1,19,22.38V20.72l.34-.46a11.34,11.34,0,0,0,1.47-2.88A2,2,0,0,0,22,15.53v-2a2.05,2.05,0,0,0-.5-1.33V9.58a4.55,4.55,0,0,0-1.06-3.3c-1-1.18-2.71-1.78-5-1.78s-4,.6-5,1.78a4.55,4.55,0,0,0-1.06,3.3V12.2a2.05,2.05,0,0,0-.5,1.33v2a2,2,0,0,0,.75,1.58,10.42,10.42,0,0,0,1.74,3.59v1.63a1.25,1.25,0,0,1-.65,1.1L6.31,25.86a2.47,2.47,0,0,0-.42.27A14.33,14.33,0,0,1,1.13,15.46Zm22.75,11.6c-.2.15-.4.29-.61.42l-.28.18c-.26.16-.53.32-.81.47l-.18.09a15.35,15.35,0,0,1-2,.83l-.07,0c-.36.12-.71.22-1.08.31h0c-.36.09-.73.17-1.1.23h0c-.35.05-.7.09-1.06.12l-.19,0c-.34,0-.7,0-1.05,0s-.71,0-1.06,0l-.19,0c-.35,0-.71-.07-1.06-.13H13.1a13.62,13.62,0,0,1-2.18-.54l-.07,0c-.35-.11-.7-.25-1-.4h0a10.59,10.59,0,0,1-1-.46l-.13-.06-.84-.49-.25-.16c-.25-.17-.5-.34-.75-.53l-.07-.05,0,0,4.45-2.43a2.39,2.39,0,0,0,1.24-2.09v-2l-.13-.16a9.18,9.18,0,0,1-1.69-3.5l-.05-.22-.19-.12a1,1,0,0,1-.44-.78v-2a1,1,0,0,1,.32-.69l.18-.16V9.47A3.39,3.39,0,0,1,11.32,7c.82-.93,2.21-1.4,4.14-1.4s3.32.47,4.13,1.39a3.47,3.47,0,0,1,.8,2.46v3.21l.19.17a.91.91,0,0,1,.31.68v2a.93.93,0,0,1-.66.88l-.28.09-.09.28a10.41,10.41,0,0,1-1.41,2.83c-.14.2-.29.39-.41.53l-.14.16v2.08a2.38,2.38,0,0,0,1.31,2.13L24,26.89l.09,0-.18.13Z"/></g></g></svg>