<svg xmlns="http://www.w3.org/2000/svg" viewBox="0 0 28.65 27.21"><defs><style>.cls-1{fill:#0ed1d6;}</style></defs><title>Fichier 2</title><g id="Calque_2" data-name="Calque 2"><g id="Calque_2-2" data-name="Calque 2"><path class="cls-1" d="M23.71,27.21H16.8V18a.59.59,0,0,0-.6-.59H12.45a.59.59,0,0,0-.6.59v9.19H4.91a1.65,1.65,0,0,1-1.65-1.65v-13a.12.12,0,0,0-.12-.12H1.66a1.66,1.66,0,0,1-1-3L13.34.31a1.68,1.68,0,0,1,1.94,0L28,9.46a1.66,1.66,0,0,1-1,3h-1.5a.12.12,0,0,0-.12.12v13A1.66,1.66,0,0,1,23.71,27.21Zm-5.37-1.53h5.37a.12.12,0,0,0,.12-.12v-13a1.66,1.66,0,0,1,1.66-1.66H27l.52-.84-.45.62L14.38,1.56,1.59,10.7l.07.22H3.14a1.65,1.65,0,0,1,1.65,1.66v13a.13.13,0,0,0,.12.12h5.4V18a2.14,2.14,0,0,1,2.14-2.13H16.2A2.14,2.14,0,0,1,18.34,18Z"/></g></g></svg>