<svg xmlns="http://www.w3.org/2000/svg" viewBox="0 0 36.17 43.35"><defs><style>.cls-1{fill:#98a0a9;}</style></defs><title>Fichier 22</title><g id="Calque_2" data-name="Calque 2"><g id="Calque_1-2" data-name="Calque 1"><path class="cls-1" d="M35.52,38.26a.65.65,0,0,0,.65-.64v-.4A7.52,7.52,0,0,0,30.69,30l-7-2L21.8,26.2V23.44a8.74,8.74,0,0,0,4.75-5.91h.85a2.35,2.35,0,0,0,2.35-2.35V14A2.32,2.32,0,0,0,29,12.24v-11h2.91V7.53a2.18,2.18,0,0,0,0,4.17v1.59a.64.64,0,1,0,1.28,0V11.7a2.18,2.18,0,0,0,0-4.17V1.28h.64a.64.64,0,0,0,.65-.64A.65.65,0,0,0,33.81,0H2.35a.64.64,0,0,0-.64.64.64.64,0,0,0,.64.64H7.18V2.57a.64.64,0,0,0,.64.64.64.64,0,0,0,.64-.64V1.28H27.7V8.81H8.46V5.56a.64.64,0,0,0-.64-.64.64.64,0,0,0-.64.64v6.68A2.36,2.36,0,0,0,6.41,14v1.2a2.36,2.36,0,0,0,2.35,2.35h.86a8.7,8.7,0,0,0,4.74,5.91V26.2L12.5,28.06l-7,2A7.5,7.5,0,0,0,0,37.22v.4a.64.64,0,0,0,.64.64.64.64,0,0,0,.64-.64v-.4a6.21,6.21,0,0,1,4.54-6l4.23-1.18,2.38,7.53a.77.77,0,0,0,.14.25l4,4.21H7.78v-2a.64.64,0,1,0-1.28,0v2H1.28V40.61A.64.64,0,0,0,.64,40a.65.65,0,0,0-.64.65v2.1a.64.64,0,0,0,.64.64H35.52a.65.65,0,0,0,.65-.64v-2.1a.65.65,0,1,0-1.29,0v1.45H29.67v-2a.64.64,0,1,0-1.28,0v2H19.58l4-4.21a.64.64,0,0,0,.15-.25l2.37-7.53,4.23,1.18a6.2,6.2,0,0,1,4.54,6v.4a.64.64,0,0,0,.64.64Zm-3-27.74a.9.9,0,0,1,0-1.8.9.9,0,1,1,0,1.8ZM17,35.4h2.2l.87,4.31-2,2.07-2-2.07Zm2.43-1.29H16.75l-1.08-1.25,2.41-2.41,2.42,2.41Zm1.75-2.4L19,29.54l2.17-2.17,1.33,1.33Zm7.31-16.53a1.06,1.06,0,0,1-1.07,1.06h-.64V12.91h.64A1.07,1.07,0,0,1,28.47,14Zm-.77-3.53a1.51,1.51,0,0,0-.3,0h-.64V10.09h.94ZM8.46,10.09H9.4v1.54H8.76a1.51,1.51,0,0,0-.3,0Zm.94,6.15H8.76a1.06,1.06,0,0,1-1.07-1.06V14a1.07,1.07,0,0,1,1.07-1.07H9.4Zm1.29-.64V10.09H25.48V15.6a7.4,7.4,0,1,1-14.79,0Zm7.39,8.68a8.52,8.52,0,0,0,2.44-.35V26.2l-2.44,2.43L15.65,26.2V23.93a8.5,8.5,0,0,0,2.43.35ZM15,27.37l2.18,2.17L15,31.71l-1.33-3Zm-3.71,2.36,1.28-.36,1.63,3.71a.16.16,0,0,0,0,.07v0l0,0v0l0,0,1.46,1.69L15,38.58l-1.43-1.51Zm11.27,7.34-1.43,1.51-.73-3.64,1.46-1.69v0l0,0,0,0v0l0-.07,1.64-3.71,1.28.36Z"/></g></g></svg>