<svg xmlns="http://www.w3.org/2000/svg" viewBox="0 0 25.15 25.15"><defs><style>.cls-1{fill:#98a0a9;}</style></defs><title>Fichier 3</title><g id="Calque_2" data-name="Calque 2"><g id="Calque_2-2" data-name="Calque 2"><path class="cls-1" d="M12.58,25.15A12.58,12.58,0,1,1,25.15,12.58,12.59,12.59,0,0,1,12.58,25.15Zm0-23.61a11,11,0,1,0,11,11A11,11,0,0,0,12.58,1.54Z"/><path class="cls-1" d="M4.25,13.54H6.69a1,1,0,0,0,0-1.92H4.25a1,1,0,0,0,0,1.92Z"/><path class="cls-1" d="M6,7.35,7.7,9.08A1,1,0,0,0,9.06,7.72L7.33,6A1,1,0,0,0,6,7.35Z"/><path class="cls-1" d="M11.57,4.2V6.65a1,1,0,0,0,1.92,0V4.2a1,1,0,0,0-1.92,0Z"/><path class="cls-1" d="M17.75,5.93,16,7.66A1,1,0,0,0,17.38,9l1.73-1.73a1,1,0,0,0-1.36-1.35Z"/><path class="cls-1" d="M20.91,11.52H18.46a1,1,0,0,0,0,1.92h2.45a1,1,0,0,0,0-1.92Z"/><path class="cls-1" d="M19.18,17.71C18.6,17.13,18,16.55,17.45,16a1,1,0,0,0-1.36,1.35l1.73,1.73a1,1,0,0,0,1.36-1.35Z"/><path class="cls-1" d="M13.58,20.86V18.41a1,1,0,0,0-1.92,0v2.45a1,1,0,0,0,1.92,0Z"/><path class="cls-1" d="M7.4,19.13,9.13,17.4A1,1,0,0,0,7.77,16L6,17.77A1,1,0,0,0,7.4,19.13Z"/></g></g></svg>