<svg xmlns="http://www.w3.org/2000/svg" viewBox="0 0 25.34 26.46"><defs><style>.cls-1{fill:#98a0a9;}</style></defs><title>Fichier 4</title><g id="Calque_2" data-name="Calque 2"><g id="Calque_2-2" data-name="Calque 2"><path class="cls-1" d="M23,26.46H2.39A2.39,2.39,0,0,1,0,24.07V11.43A2.39,2.39,0,0,1,2.39,9H5.5a.74.74,0,0,0,.74-.74V2.39A2.39,2.39,0,0,1,8.63,0h8.08A2.39,2.39,0,0,1,19.1,2.39V8.3a.74.74,0,0,0,.74.74H23a2.39,2.39,0,0,1,2.39,2.39V24.07A2.39,2.39,0,0,1,23,26.46ZM2.39,10.69a.74.74,0,0,0-.74.74V24.07a.74.74,0,0,0,.74.74H23a.74.74,0,0,0,.74-.74V11.43a.74.74,0,0,0-.74-.74H19.84A2.39,2.39,0,0,1,17.45,8.3V2.39a.74.74,0,0,0-.74-.74H8.63a.74.74,0,0,0-.74.74V8.3A2.39,2.39,0,0,1,5.5,10.69Z"/></g></g></svg>