<svg xmlns="http://www.w3.org/2000/svg" viewBox="0 0 24.55 23.59"><defs><style>.cls-1{fill:none;stroke:#98a0a9;stroke-miterlimit:10;}</style></defs><title>Fichier 5</title><g id="Calque_2" data-name="Calque 2"><g id="Calque_2-2" data-name="Calque 2"><path class="cls-1" d="M14,1.58l2.13,4.33A1.94,1.94,0,0,0,17.61,7l4.78.69A1.94,1.94,0,0,1,23.46,11L20,14.34a1.94,1.94,0,0,0-.56,1.72l.82,4.76a1.94,1.94,0,0,1-2.82,2l-4.27-2.24a1.93,1.93,0,0,0-1.81,0L7.1,22.86a1.93,1.93,0,0,1-2.81-2l.81-4.76a1.94,1.94,0,0,0-.56-1.72L1.09,11A1.94,1.94,0,0,1,2.16,7.66L6.94,7A1.94,1.94,0,0,0,8.4,5.91l2.14-4.33A1.94,1.94,0,0,1,14,1.58Z"/></g></g></svg>