<svg xmlns="http://www.w3.org/2000/svg" viewBox="0 0 18.69 22.66"><defs><style>.cls-1{fill:#98a0a9;}</style></defs><title>Fichier 6</title><g id="Calque_2" data-name="Calque 2"><g id="Calque_2-2" data-name="Calque 2"><path class="cls-1" d="M14.91,22.66H3.78A3.78,3.78,0,0,1,0,18.88V3.78A3.78,3.78,0,0,1,3.78,0H14.91a3.78,3.78,0,0,1,3.78,3.78v15.1A3.79,3.79,0,0,1,14.91,22.66ZM3.78,1.54A2.24,2.24,0,0,0,1.54,3.78v15.1a2.24,2.24,0,0,0,2.24,2.24H14.91a2.24,2.24,0,0,0,2.24-2.24V3.78a2.24,2.24,0,0,0-2.24-2.24Z"/><rect class="cls-1" x="4.96" y="5.5" width="8.77" height="1.54"/><rect class="cls-1" x="4.96" y="10.24" width="8.77" height="1.54"/><rect class="cls-1" x="4.96" y="14.98" width="8.77" height="1.54"/></g></g></svg>