<svg xmlns="http://www.w3.org/2000/svg" viewBox="0 0 25.77 25.77"><defs><style>.cls-1{fill:none;stroke:#98a0a9;stroke-miterlimit:10;}</style></defs><title>Fichier 8</title><g id="Calque_2" data-name="Calque 2"><g id="Calque_2-2" data-name="Calque 2"><path class="cls-1" d="M23.35,10.1H21.66a8.19,8.19,0,0,0-.53-1.26l1.26-1.25a1.94,1.94,0,0,0,0-2.72L21,3.52a1.93,1.93,0,0,0-2.72,0L17.07,4.76a8.6,8.6,0,0,0-1.21-.51V2.42A1.92,1.92,0,0,0,13.94.5H12A1.92,1.92,0,0,0,10.1,2.42V4.19a8.51,8.51,0,0,0-1.21.49l-1.3-1.3a1.93,1.93,0,0,0-2.72,0L3.52,4.74a1.91,1.91,0,0,0,0,2.71L4.74,8.67A9.11,9.11,0,0,0,4.2,9.91H2.42A1.92,1.92,0,0,0,.5,11.83v1.92a1.93,1.93,0,0,0,1.92,1.92H4.07A8.6,8.6,0,0,0,4.59,17L3.38,18.18a1.91,1.91,0,0,0,0,2.71l1.36,1.36a1.91,1.91,0,0,0,2.71,0l1.12-1.12a9.3,9.3,0,0,0,1.34.57v1.65a1.93,1.93,0,0,0,1.92,1.92h1.92a1.93,1.93,0,0,0,1.92-1.92V21.78A10.6,10.6,0,0,0,17,21.23l1.16,1.16a1.93,1.93,0,0,0,2.71,0L22.25,21a1.93,1.93,0,0,0,0-2.72l-1.14-1.14a10.06,10.06,0,0,0,.55-1.31h1.69a1.93,1.93,0,0,0,1.92-1.92V12A1.93,1.93,0,0,0,23.35,10.1ZM16.49,13A3.6,3.6,0,1,1,12.9,9.39,3.59,3.59,0,0,1,16.49,13Z"/></g></g></svg>