<svg xmlns="http://www.w3.org/2000/svg" viewBox="0 0 70 70"><defs><style>.cls-1{fill:#0ed1d6;}</style></defs><title>Fichier 9</title><g id="Calque_2" data-name="Calque 2"><g id="Calque_2-2" data-name="Calque 2"><path class="cls-1" d="M35,70A35,35,0,1,1,70,35,35,35,0,0,1,35,70ZM35,4.27A30.73,30.73,0,1,0,65.73,35,30.77,30.77,0,0,0,35,4.27Z"/><path class="cls-1" d="M11.81,37.67h6.82c3.44,0,3.44-5.34,0-5.34H11.81c-3.43,0-3.44,5.34,0,5.34Z"/><path class="cls-1" d="M16.62,20.46l4.82,4.81c2.43,2.43,6.21-1.34,3.78-3.78L20.4,16.68C18,14.25,14.19,18,16.62,20.46Z"/><path class="cls-1" d="M32.2,11.68v6.81c0,3.44,5.34,3.45,5.34,0V11.68c0-3.44-5.34-3.44-5.34,0Z"/><path class="cls-1" d="M49.41,16.49c-1.6,1.61-3.21,3.21-4.82,4.82-2.43,2.43,1.35,6.21,3.78,3.78l4.82-4.82c2.43-2.43-1.34-6.21-3.78-3.78Z"/><path class="cls-1" d="M58.19,32.06H51.37c-3.44,0-3.44,5.35,0,5.35h6.82c3.43,0,3.44-5.35,0-5.35Z"/><path class="cls-1" d="M53.38,49.28l-4.82-4.82c-2.43-2.43-6.21,1.35-3.78,3.78l4.82,4.82c2.43,2.43,6.21-1.34,3.78-3.78Z"/><path class="cls-1" d="M37.8,58.05V51.24c0-3.44-5.34-3.44-5.34,0v6.81c0,3.44,5.34,3.45,5.34,0Z"/><path class="cls-1" d="M20.59,53.25l4.82-4.82c2.43-2.43-1.35-6.22-3.78-3.78l-4.82,4.82c-2.43,2.43,1.34,6.21,3.78,3.78Z"/></g></g></svg>